<svg xmlns="http://www.w3.org/2000/svg" version="1.1" xmlns:xlink="http://www.w3.org/1999/xlink" xmlns:svgjs="http://svgjs.dev/svgjs" width="512" height="512"><svg version="1.1" id="SvgjsSvg1029" xmlns="http://www.w3.org/2000/svg" xmlns:xlink="http://www.w3.org/1999/xlink" x="0px" y="0px" viewBox="0 0 512 512" style="enable-background:new 0 0 512 512;" xml:space="preserve">
<style type="text/css">
	.st0{fill:#FFFFFF;}
	.st1{fill:#7DAC51;}
	.st2{fill:#5B7C31;}
	.st3{fill:#463218;}
	.st4{fill:#FEFE71;}
	.st5{fill:#D6CD1E;}
	.st6{fill:#E56823;}
	.st7{fill:#FE8E46;}
	.st8{fill:none;stroke:#FFFFFF;stroke-width:10;stroke-miterlimit:10;}
	.st9{fill:none;stroke:#463218;stroke-width:14;stroke-linecap:round;stroke-linejoin:round;stroke-miterlimit:10;}
	.st10{fill:#FE8D47;}
	.st11{fill:#E56724;}
</style>
<g id="SvgjsG1028">
	<g>
		<g>
			<g>
				<path class="st1" d="M256.7,114.9c20.1,11.4,33.4,32.3,33.1,56.2s-14.1,44.5-34.5,55.4c-20.1-11.4-33.4-32.3-33.1-56.2
					C222.5,146.5,236.4,125.8,256.7,114.9z"></path>
			</g>
		</g>
		<g>
			<g>
				<path class="st2" d="M255.3,226.5c-20.1-11.4-33.4-32.3-33.1-56.2c0.3-23.9,14.1-44.5,34.5-55.4"></path>
			</g>
		</g>
		<g>
			<g>
				<path class="st3" d="M255.3,233.5c-1.2,0-2.4-0.3-3.5-0.9c-22.9-13-37-36.9-36.7-62.4c0.3-25.5,14.9-49,38.2-61.5
					c2.1-1.1,4.7-1.1,6.8,0.1c22.9,13,37,36.9,36.7,62.4c-0.3,25.5-14.9,49-38.2,61.5C257.6,233.3,256.5,233.5,255.3,233.5z
					 M256.6,123.1c-16.8,10.4-27.2,28.3-27.4,47.4c-0.2,19.1,9.7,37.2,26.2,48c16.8-10.4,27.2-28.3,27.4-47.4
					C283.1,151.9,273.1,133.9,256.6,123.1z"></path>
			</g>
		</g>
		<g>
			<g>
				<path class="st1" d="M176.1,206.8c17.1-8.1,38.1-7.6,55.2,3.2c17.1,10.8,25.8,29,24.7,47.2c-17.1,8.1-38.1,7.6-55.2-3.2
					S175,225,176.1,206.8z"></path>
			</g>
		</g>
		<g>
			<g>
				<path class="st2" d="M256,257.1c-17.1,8.1-38.1,7.6-55.2-3.2s-25.8-29-24.7-47.2"></path>
			</g>
		</g>
		<g>
			<g>
				<path class="st1" d="M357.8,180.6c-21.7-10.3-48.4-9.7-70.1,4c-21.7,13.7-32.8,36.8-31.4,59.9c21.7,10.3,48.4,9.7,70.1-4
					C348,226.8,359.2,203.6,357.8,180.6z"></path>
			</g>
		</g>
		<g>
			<g>
				<path class="st2" d="M357.8,180.6c0,0-48.4-9.7-70.1,4c-21.7,13.7-31.4,59.9-31.4,59.9L357.8,180.6z"></path>
			</g>
		</g>
		<g>
			<g>
				<path class="st3" d="M287.6,258.5c-11.8,0-23.6-2.5-34.4-7.7c-2.3-1.1-3.8-3.3-4-5.9c-1.6-26.4,11.7-51.8,34.7-66.3
					c22.9-14.4,52.3-16.1,76.8-4.4c2.3,1.1,3.8,3.3,4,5.9c1.6,26.4-11.7,51.8-34.7,66.3C317.3,254.4,302.5,258.5,287.6,258.5z
					 M263.1,239.8c19.4,7.7,41.8,5.8,59.5-5.3c17.4-11,28-29.6,28.3-49.3c-19.4-7.7-41.8-5.8-59.5,5.3
					C273.9,201.5,263.4,220.1,263.1,239.8z"></path>
			</g>
		</g>
		<g>
			<g>
				<path class="st3" d="M231.3,269.6c-12,0-23.9-3.3-34.2-9.8c-18.6-11.7-29.3-32.2-28-53.5c0.2-2.5,1.7-4.8,4-5.9
					c19.8-9.4,43.5-8,61.9,3.6c18.6,11.7,29.3,32.2,28,53.5c-0.2,2.5-1.7,4.8-4,5.9C250.3,267.6,240.8,269.6,231.3,269.6z
					 M183,211.4c0.5,14.7,8.5,28.4,21.5,36.6c13.2,8.3,29.9,9.9,44.5,4.4c-0.5-14.7-8.5-28.4-21.5-36.6
					C214.4,207.5,197.7,206,183,211.4z"></path>
			</g>
		</g>
		<g>
			<g>
				<path class="st3" d="M256.1,404.1c-3.9,0-7-3.1-7-7V244.5c0-3.9,3.1-7,7-7s7,3.1,7,7v152.6C263.1,400.9,260,404.1,256.1,404.1z"></path>
			</g>
		</g>
	</g>
	<g>
		<g>
			<g>
				<g>
					<polygon class="st0" points="301.2,234.1 294.5,224.7 314.3,212 321,221.4 					"></polygon>
				</g>
			</g>
		</g>
		<g>
			<g>
				<g>
					<polygon class="st0" points="326.9,217.6 320.3,208.2 327.8,203.3 334.5,212.7 					"></polygon>
				</g>
			</g>
		</g>
	</g>
	<g>
		<g>
			<g>
				<path class="st1" d="M385.5,263.1c5.8,21.6-0.4,45.4-18.3,62.1c-17.9,16.7-43,21.9-65.5,15.9c-5.8-21.6,0.4-45.4,18.3-62.1
					C337.9,262.3,363,257.1,385.5,263.1z"></path>
			</g>
		</g>
		<g>
			<g>
				<path class="st2" d="M301.8,341.1c-5.8-21.6,0.4-45.4,18.3-62.1c17.9-16.7,43-21.9,65.5-15.9"></path>
			</g>
		</g>
		<g>
			<g>
				<path class="st3" d="M319.9,350.4c-6.7,0-13.4-0.9-19.9-2.6c-2.4-0.6-4.3-2.5-5-5c-6.6-24.8,1.2-51.2,20.2-69
					c18.9-17.6,46.6-24.4,72.1-17.6c2.4,0.6,4.3,2.5,5,5c6.6,24.8-1.2,51.2-20.2,69C358,343.3,339.1,350.4,319.9,350.4z
					 M307.6,335.2c19.7,3.9,40.4-1.8,54.9-15.2c14.3-13.3,20.6-32.6,17.2-51.1c-19.7-3.9-40.4,1.8-54.9,15.2
					C310.5,297.4,304.2,316.7,307.6,335.2z"></path>
			</g>
		</g>
	</g>
	<g>
		<g>
			<path class="st3" d="M256.8,391c-1.8,0-3.7-0.7-5.1-2.2c-2.7-2.8-2.6-7.2,0.2-9.9l45-42.9c2.8-2.7,7.2-2.6,9.9,0.2
				c2.7,2.8,2.6,7.2-0.2,9.9l-45,42.9C260.3,390.3,258.5,391,256.8,391z"></path>
		</g>
	</g>
	<g>
		<g>
			<g>
				<path class="st1" d="M126.5,263.1c-5.8,21.6,0.4,45.4,18.3,62.1s43,21.9,65.5,15.9c5.8-21.6-0.4-45.4-18.3-62.1
					C174.1,262.3,149,257.1,126.5,263.1z"></path>
			</g>
		</g>
		<g>
			<g>
				<path class="st2" d="M210.2,341.1c5.8-21.6-0.4-45.4-18.3-62.1c-17.9-16.7-43-21.9-65.5-15.9"></path>
			</g>
		</g>
		<g>
			<g>
				<path class="st3" d="M192.1,350.4c-19.2,0-38.1-7.1-52.1-20.2c-19.1-17.8-26.9-44.2-20.2-69c0.6-2.4,2.5-4.3,5-5
					c25.5-6.8,53.1-0.1,72.1,17.6c19.1,17.8,26.9,44.2,20.2,69c-0.6,2.4-2.5,4.3-5,5C205.5,349.6,198.7,350.4,192.1,350.4z
					 M132.3,268.9c-3.5,18.6,2.9,37.8,17.2,51.1c14.5,13.5,35.2,19.1,54.9,15.2c3.5-18.6-2.9-37.8-17.2-51.1
					C172.7,270.7,152,265,132.3,268.9z"></path>
			</g>
		</g>
	</g>
	<g>
		<g>
			<path class="st3" d="M255.2,391c-1.7,0-3.5-0.6-4.8-1.9l-45-42.9c-2.8-2.7-2.9-7.1-0.2-9.9c2.7-2.8,7.1-2.9,9.9-0.2l45,42.9
				c2.8,2.7,2.9,7.1,0.2,9.9C258.9,390.2,257.1,391,255.2,391z"></path>
		</g>
	</g>
</g>
</svg><style>@media (prefers-color-scheme: light) { :root { filter: none; } }
@media (prefers-color-scheme: dark) { :root { filter: none; } }
</style></svg>